<svg width="521" height="72" viewBox="0 0 521 72" fill="none" xmlns="http://www.w3.org/2000/svg">
<path d="M46.6973 43.6534L46.7402 43.8502H46.9416H50.9508V48.1502H46.9416H46.7402L46.6973 48.3469C46.4218 49.6107 45.9229 50.8151 45.224 51.9035L45.1152 52.0729L45.2576 52.2153L48.092 55.0498L45.0504 58.0914L42.216 55.257L42.0734 55.1144L41.9039 55.2236C40.8163 55.9236 39.6118 56.4226 38.3478 56.6966L38.1508 56.7393V56.941V60.9502H33.8508V56.941V56.7393L33.6538 56.6966C32.3897 56.4226 31.1852 55.9236 30.0977 55.2236L29.9282 55.1144L29.7856 55.257L26.9512 58.0914L23.9095 55.0498L26.744 52.2153L26.8864 52.0729L26.7775 51.9035C26.0786 50.8151 25.5797 49.6107 25.3043 48.3469L25.2614 48.1502H25.06H21.0508V43.8502H25.06H25.2614L25.3043 43.6534C25.5797 42.3896 26.0786 41.1852 26.7775 40.0969L26.8864 39.9274L26.744 39.785L23.9095 36.9506L26.9512 33.9089L29.7856 36.7434L29.9282 36.8859L30.0977 36.7768C31.1852 36.0767 32.3897 35.5778 33.6538 35.3037L33.8508 35.261V35.0594V31.0502H38.1508V35.0594V35.261L38.3478 35.3037C39.6118 35.5778 40.8163 36.0767 41.9039 36.7768L42.0734 36.8859L42.216 36.7434L45.0504 33.9089L48.092 36.9506L45.2576 39.785L45.1152 39.9274L45.224 40.0969C45.9229 41.1852 46.4218 42.3896 46.6973 43.6534ZM33.1952 50.1991C34.0256 50.754 35.002 51.0502 36.0008 51.0502C37.3401 51.0502 38.6246 50.5181 39.5717 49.571C40.5187 48.624 41.0508 47.3395 41.0508 46.0002C41.0508 45.0014 40.7546 44.025 40.1997 43.1946C39.6448 42.3641 38.8561 41.7168 37.9333 41.3346C37.0106 40.9524 35.9952 40.8523 35.0156 41.0472C34.036 41.2421 33.1362 41.723 32.4299 42.4293C31.7237 43.1355 31.2427 44.0353 31.0478 45.015C30.853 45.9946 30.953 47.01 31.3352 47.9327C31.7174 48.8555 32.3647 49.6442 33.1952 50.1991Z" stroke="#F4F4F5" stroke-width="0.5"/>
<path d="M5.6 20.9501H5.35V21.2001V55.5999C5.35 56.0906 5.54492 56.5611 5.89186 56.9081C6.2388 57.255 6.70935 57.4499 7.2 57.4499H20.8C20.9459 57.4499 21.0858 57.5079 21.1889 57.611C21.2921 57.7141 21.35 57.8541 21.35 57.9999C21.35 58.1458 21.2921 58.2857 21.1889 58.3889C21.0858 58.492 20.9459 58.5499 20.8 58.5499H7.2C6.41761 58.5499 5.66728 58.2391 5.11404 57.6859C4.56081 57.1327 4.25 56.3823 4.25 55.5999V13.2002C4.25 12.4178 4.56081 11.6675 5.11404 11.1142C5.66728 10.561 6.41761 10.2502 7.2 10.2502H64.8C65.5824 10.2502 66.3327 10.561 66.886 11.1142C67.4392 11.6675 67.75 12.4178 67.75 13.2002V55.5999C67.75 56.3823 67.4392 57.1327 66.886 57.6859C66.3327 58.2391 65.5824 58.5499 64.8 58.5499H51.2C51.0541 58.5499 50.9142 58.492 50.8111 58.3889C50.7079 58.2857 50.65 58.1458 50.65 57.9999C50.65 57.8541 50.7079 57.7141 50.8111 57.611C50.9142 57.5079 51.0541 57.4499 51.2 57.4499H64.8C65.2907 57.4499 65.7612 57.255 66.1081 56.9081C66.4551 56.5611 66.65 56.0906 66.65 55.5999V21.2001V20.9501H66.4H5.6ZM5.35 19.6001V19.8501H5.6H66.4H66.65V19.6001V13.2002C66.65 12.7095 66.4551 12.239 66.1081 11.892C65.7612 11.5451 65.2907 11.3502 64.8 11.3502H7.2C6.70935 11.3502 6.2388 11.5451 5.89186 11.892C5.54492 12.239 5.35 12.7095 5.35 13.2002V19.6001Z" stroke="#F4F4F5" stroke-width="0.5"/>
<path d="M10.95 15.6002C10.95 16.3458 10.3456 16.9502 9.6 16.9502C8.85442 16.9502 8.25 16.3458 8.25 15.6002C8.25 14.8546 8.85442 14.2502 9.6 14.2502C10.3456 14.2502 10.95 14.8546 10.95 15.6002Z" stroke="#F4F4F5" stroke-width="0.5"/>
<path d="M17.3504 15.6002C17.3504 16.3458 16.746 16.9502 16.0004 16.9502C15.2548 16.9502 14.6504 16.3458 14.6504 15.6002C14.6504 14.8546 15.2548 14.2502 16.0004 14.2502C16.746 14.2502 17.3504 14.8546 17.3504 15.6002Z" stroke="#F4F4F5" stroke-width="0.5"/>
<path d="M23.7508 15.6002C23.7508 16.3458 23.1464 16.9502 22.4008 16.9502C21.6552 16.9502 21.0508 16.3458 21.0508 15.6002C21.0508 14.8546 21.6552 14.2502 22.4008 14.2502C23.1464 14.2502 23.7508 14.8546 23.7508 15.6002Z" stroke="#F4F4F5" stroke-width="0.5"/>
<path d="M128.204 27.5C127.969 27.5 127.786 27.4413 127.654 27.324C127.522 27.2067 127.427 27.06 127.368 26.884L122.66 12.76C122.631 12.6867 122.616 12.6207 122.616 12.562C122.616 12.43 122.66 12.32 122.748 12.232C122.836 12.144 122.946 12.1 123.078 12.1H125.014C125.219 12.1 125.373 12.1587 125.476 12.276C125.593 12.3787 125.667 12.4813 125.696 12.584L129.414 23.914L133.11 12.584C133.154 12.4813 133.227 12.3787 133.33 12.276C133.447 12.1587 133.609 12.1 133.814 12.1H135.75C135.867 12.1 135.97 12.144 136.058 12.232C136.161 12.32 136.212 12.43 136.212 12.562C136.212 12.6207 136.197 12.6867 136.168 12.76L131.46 26.884C131.401 27.06 131.306 27.2067 131.174 27.324C131.042 27.4413 130.859 27.5 130.624 27.5H128.204ZM136.676 27.5C136.558 27.5 136.448 27.456 136.346 27.368C136.258 27.28 136.214 27.17 136.214 27.038C136.214 26.9793 136.228 26.9133 136.258 26.84L141.56 12.65C141.604 12.5033 141.684 12.3787 141.802 12.276C141.934 12.1587 142.11 12.1 142.33 12.1H144.728C144.948 12.1 145.116 12.1587 145.234 12.276C145.351 12.3787 145.439 12.5033 145.498 12.65L150.8 26.84C150.814 26.9133 150.822 26.9793 150.822 27.038C150.822 27.17 150.778 27.28 150.69 27.368C150.602 27.456 150.499 27.5 150.382 27.5H148.468C148.262 27.5 148.108 27.456 148.006 27.368C147.918 27.2653 147.859 27.17 147.83 27.082L146.796 24.398H140.262L139.228 27.082C139.198 27.17 139.132 27.2653 139.03 27.368C138.942 27.456 138.795 27.5 138.59 27.5H136.676ZM141.032 21.868H146.026L143.518 15.07L141.032 21.868ZM153.623 27.5C153.477 27.5 153.352 27.4487 153.249 27.346C153.147 27.2433 153.095 27.1187 153.095 26.972V12.628C153.095 12.4813 153.147 12.3567 153.249 12.254C153.352 12.1513 153.477 12.1 153.623 12.1H155.669C155.816 12.1 155.941 12.1513 156.043 12.254C156.146 12.3567 156.197 12.4813 156.197 12.628V24.882H163.171C163.333 24.882 163.465 24.9333 163.567 25.036C163.67 25.1387 163.721 25.2707 163.721 25.432V26.972C163.721 27.1187 163.67 27.2433 163.567 27.346C163.465 27.4487 163.333 27.5 163.171 27.5H153.623ZM171.893 27.72C170.617 27.72 169.51 27.5073 168.571 27.082C167.632 26.642 166.906 25.9747 166.393 25.08C165.88 24.1707 165.623 23.012 165.623 21.604V12.65C165.623 12.4887 165.674 12.3567 165.777 12.254C165.88 12.1513 166.004 12.1 166.151 12.1H168.153C168.314 12.1 168.439 12.1513 168.527 12.254C168.63 12.3567 168.681 12.4887 168.681 12.65V21.604C168.681 22.8067 168.967 23.7013 169.539 24.288C170.111 24.86 170.896 25.146 171.893 25.146C172.89 25.146 173.668 24.86 174.225 24.288C174.797 23.7013 175.083 22.8067 175.083 21.604V12.65C175.083 12.4887 175.134 12.3567 175.237 12.254C175.34 12.1513 175.472 12.1 175.633 12.1H177.613C177.774 12.1 177.899 12.1513 177.987 12.254C178.09 12.3567 178.141 12.4887 178.141 12.65V21.604C178.141 23.012 177.884 24.1707 177.371 25.08C176.872 25.9747 176.154 26.642 175.215 27.082C174.291 27.5073 173.184 27.72 171.893 27.72ZM182.187 27.5C182.04 27.5 181.915 27.4487 181.813 27.346C181.71 27.2433 181.659 27.1187 181.659 26.972V12.65C181.659 12.4887 181.71 12.3567 181.813 12.254C181.915 12.1513 182.04 12.1 182.187 12.1H191.867C192.028 12.1 192.16 12.1513 192.263 12.254C192.365 12.3567 192.417 12.4887 192.417 12.65V14.102C192.417 14.2487 192.365 14.3733 192.263 14.476C192.16 14.5787 192.028 14.63 191.867 14.63H184.629V18.524H191.383C191.544 18.524 191.676 18.5753 191.779 18.678C191.881 18.766 191.933 18.8907 191.933 19.052V20.416C191.933 20.5773 191.881 20.7093 191.779 20.812C191.676 20.9 191.544 20.944 191.383 20.944H184.629V24.97H192.043C192.204 24.97 192.336 25.0213 192.439 25.124C192.541 25.2267 192.593 25.3587 192.593 25.52V26.972C192.593 27.1187 192.541 27.2433 192.439 27.346C192.336 27.4487 192.204 27.5 192.043 27.5H182.187ZM206.751 27.72C205.387 27.72 204.229 27.4853 203.275 27.016C202.337 26.532 201.618 25.85 201.119 24.97C200.621 24.0753 200.342 23.0047 200.283 21.758C200.269 21.1567 200.261 20.5113 200.261 19.822C200.261 19.1327 200.269 18.4727 200.283 17.842C200.342 16.61 200.621 15.5467 201.119 14.652C201.633 13.7573 202.359 13.0753 203.297 12.606C204.251 12.122 205.402 11.88 206.751 11.88C207.749 11.88 208.643 12.012 209.435 12.276C210.227 12.54 210.902 12.9067 211.459 13.376C212.017 13.8307 212.449 14.366 212.757 14.982C213.065 15.598 213.227 16.2653 213.241 16.984C213.256 17.116 213.212 17.226 213.109 17.314C213.021 17.402 212.911 17.446 212.779 17.446H210.689C210.528 17.446 210.396 17.4093 210.293 17.336C210.191 17.248 210.117 17.1087 210.073 16.918C209.839 15.95 209.435 15.29 208.863 14.938C208.291 14.586 207.58 14.41 206.729 14.41C205.747 14.41 204.962 14.6887 204.375 15.246C203.789 15.7887 203.473 16.6907 203.429 17.952C203.385 19.1547 203.385 20.3867 203.429 21.648C203.473 22.9093 203.789 23.8187 204.375 24.376C204.962 24.9187 205.747 25.19 206.729 25.19C207.58 25.19 208.291 25.014 208.863 24.662C209.435 24.2953 209.839 23.6353 210.073 22.682C210.117 22.4767 210.191 22.3373 210.293 22.264C210.396 22.1907 210.528 22.154 210.689 22.154H212.779C212.911 22.154 213.021 22.198 213.109 22.286C213.212 22.374 213.256 22.484 213.241 22.616C213.227 23.3347 213.065 24.002 212.757 24.618C212.449 25.234 212.017 25.7767 211.459 26.246C210.902 26.7007 210.227 27.06 209.435 27.324C208.643 27.588 207.749 27.72 206.751 27.72ZM216.598 27.5C216.452 27.5 216.327 27.4487 216.224 27.346C216.122 27.2433 216.07 27.1187 216.07 26.972V12.65C216.07 12.4887 216.122 12.3567 216.224 12.254C216.327 12.1513 216.452 12.1 216.598 12.1H222.296C224.071 12.1 225.472 12.5107 226.498 13.332C227.525 14.1533 228.038 15.3487 228.038 16.918C228.038 18.0033 227.767 18.9053 227.224 19.624C226.696 20.3427 225.985 20.8633 225.09 21.186L228.302 26.796C228.346 26.884 228.368 26.9647 228.368 27.038C228.368 27.17 228.317 27.28 228.214 27.368C228.126 27.456 228.024 27.5 227.906 27.5H225.904C225.655 27.5 225.464 27.434 225.332 27.302C225.2 27.17 225.098 27.038 225.024 26.906L222.186 21.692H219.128V26.972C219.128 27.1187 219.077 27.2433 218.974 27.346C218.886 27.4487 218.762 27.5 218.6 27.5H216.598ZM219.128 19.206H222.23C223.125 19.206 223.792 19.008 224.232 18.612C224.672 18.2013 224.892 17.6293 224.892 16.896C224.892 16.1627 224.672 15.5907 224.232 15.18C223.807 14.7547 223.14 14.542 222.23 14.542H219.128V19.206ZM231.621 27.5C231.475 27.5 231.35 27.4487 231.247 27.346C231.145 27.2433 231.093 27.1187 231.093 26.972V12.65C231.093 12.4887 231.145 12.3567 231.247 12.254C231.35 12.1513 231.475 12.1 231.621 12.1H241.301C241.463 12.1 241.595 12.1513 241.697 12.254C241.8 12.3567 241.851 12.4887 241.851 12.65V14.102C241.851 14.2487 241.8 14.3733 241.697 14.476C241.595 14.5787 241.463 14.63 241.301 14.63H234.063V18.524H240.817C240.979 18.524 241.111 18.5753 241.213 18.678C241.316 18.766 241.367 18.8907 241.367 19.052V20.416C241.367 20.5773 241.316 20.7093 241.213 20.812C241.111 20.9 240.979 20.944 240.817 20.944H234.063V24.97H241.477C241.639 24.97 241.771 25.0213 241.873 25.124C241.976 25.2267 242.027 25.3587 242.027 25.52V26.972C242.027 27.1187 241.976 27.2433 241.873 27.346C241.771 27.4487 241.639 27.5 241.477 27.5H231.621ZM244.053 27.5C243.935 27.5 243.825 27.456 243.723 27.368C243.635 27.28 243.591 27.17 243.591 27.038C243.591 26.9793 243.605 26.9133 243.635 26.84L248.937 12.65C248.981 12.5033 249.061 12.3787 249.179 12.276C249.311 12.1587 249.487 12.1 249.707 12.1H252.105C252.325 12.1 252.493 12.1587 252.611 12.276C252.728 12.3787 252.816 12.5033 252.875 12.65L258.177 26.84C258.191 26.9133 258.199 26.9793 258.199 27.038C258.199 27.17 258.155 27.28 258.067 27.368C257.979 27.456 257.876 27.5 257.759 27.5H255.845C255.639 27.5 255.485 27.456 255.383 27.368C255.295 27.2653 255.236 27.17 255.207 27.082L254.173 24.398H247.639L246.605 27.082C246.575 27.17 246.509 27.2653 246.407 27.368C246.319 27.456 246.172 27.5 245.967 27.5H244.053ZM248.409 21.868H253.403L250.895 15.07L248.409 21.868ZM262.777 27.5C262.631 27.5 262.506 27.4487 262.403 27.346C262.301 27.2433 262.249 27.1187 262.249 26.972V14.806H258.179C258.033 14.806 257.908 14.7547 257.805 14.652C257.703 14.5493 257.651 14.4247 257.651 14.278V12.65C257.651 12.4887 257.703 12.3567 257.805 12.254C257.908 12.1513 258.033 12.1 258.179 12.1H269.399C269.561 12.1 269.693 12.1513 269.795 12.254C269.898 12.3567 269.949 12.4887 269.949 12.65V14.278C269.949 14.4247 269.898 14.5493 269.795 14.652C269.693 14.7547 269.561 14.806 269.399 14.806H265.351V26.972C265.351 27.1187 265.3 27.2433 265.197 27.346C265.095 27.4487 264.963 27.5 264.801 27.5H262.777ZM272.93 27.5C272.783 27.5 272.658 27.4487 272.556 27.346C272.453 27.2433 272.402 27.1187 272.402 26.972V12.628C272.402 12.4813 272.453 12.3567 272.556 12.254C272.658 12.1513 272.783 12.1 272.93 12.1H274.998C275.159 12.1 275.284 12.1513 275.372 12.254C275.474 12.3567 275.526 12.4813 275.526 12.628V26.972C275.526 27.1187 275.474 27.2433 275.372 27.346C275.284 27.4487 275.159 27.5 274.998 27.5H272.93ZM285.114 27.72C283.809 27.72 282.687 27.5073 281.748 27.082C280.809 26.642 280.076 25.9747 279.548 25.08C279.02 24.1707 278.734 23.0413 278.69 21.692C278.675 21.0613 278.668 20.438 278.668 19.822C278.668 19.206 278.675 18.5753 278.69 17.93C278.734 16.5953 279.027 15.4807 279.57 14.586C280.113 13.6913 280.853 13.0167 281.792 12.562C282.745 12.1073 283.853 11.88 285.114 11.88C286.375 11.88 287.483 12.1073 288.436 12.562C289.389 13.0167 290.137 13.6913 290.68 14.586C291.223 15.4807 291.516 16.5953 291.56 17.93C291.589 18.5753 291.604 19.206 291.604 19.822C291.604 20.438 291.589 21.0613 291.56 21.692C291.516 23.0413 291.23 24.1707 290.702 25.08C290.174 25.9747 289.433 26.642 288.48 27.082C287.541 27.5073 286.419 27.72 285.114 27.72ZM285.114 25.19C286.067 25.19 286.845 24.9113 287.446 24.354C288.047 23.782 288.37 22.858 288.414 21.582C288.443 20.9367 288.458 20.3427 288.458 19.8C288.458 19.2427 288.443 18.6487 288.414 18.018C288.385 17.1673 288.223 16.478 287.93 15.95C287.651 15.4073 287.27 15.0187 286.786 14.784C286.302 14.5347 285.745 14.41 285.114 14.41C284.498 14.41 283.948 14.5347 283.464 14.784C282.98 15.0187 282.591 15.4073 282.298 15.95C282.019 16.478 281.865 17.1673 281.836 18.018C281.821 18.6487 281.814 19.2427 281.814 19.8C281.814 20.3427 281.821 20.9367 281.836 21.582C281.88 22.858 282.203 23.782 282.804 24.354C283.405 24.9113 284.175 25.19 285.114 25.19ZM295.241 27.5C295.094 27.5 294.969 27.4487 294.867 27.346C294.764 27.2433 294.713 27.1187 294.713 26.972V12.65C294.713 12.4887 294.764 12.3567 294.867 12.254C294.969 12.1513 295.094 12.1 295.241 12.1H296.935C297.14 12.1 297.287 12.1513 297.375 12.254C297.477 12.342 297.543 12.408 297.573 12.452L303.909 22.308V12.65C303.909 12.4887 303.953 12.3567 304.041 12.254C304.143 12.1513 304.275 12.1 304.437 12.1H306.285C306.446 12.1 306.578 12.1513 306.681 12.254C306.783 12.3567 306.835 12.4887 306.835 12.65V26.95C306.835 27.1113 306.783 27.2433 306.681 27.346C306.578 27.4487 306.453 27.5 306.307 27.5H304.591C304.385 27.5 304.239 27.4487 304.151 27.346C304.063 27.2433 303.997 27.1773 303.953 27.148L297.639 17.512V26.972C297.639 27.1187 297.587 27.2433 297.485 27.346C297.382 27.4487 297.25 27.5 297.089 27.5H295.241ZM316.263 27.5C316.116 27.5 315.991 27.4487 315.889 27.346C315.786 27.2433 315.735 27.1187 315.735 26.972V12.628C315.735 12.4813 315.786 12.3567 315.889 12.254C315.991 12.1513 316.116 12.1 316.263 12.1H318.331C318.492 12.1 318.617 12.1513 318.705 12.254C318.807 12.3567 318.859 12.4813 318.859 12.628V26.972C318.859 27.1187 318.807 27.2433 318.705 27.346C318.617 27.4487 318.492 27.5 318.331 27.5H316.263ZM323.057 27.5C322.91 27.5 322.786 27.4487 322.683 27.346C322.58 27.2433 322.529 27.1187 322.529 26.972V12.65C322.529 12.4887 322.58 12.3567 322.683 12.254C322.786 12.1513 322.91 12.1 323.057 12.1H324.751C324.956 12.1 325.103 12.1513 325.191 12.254C325.294 12.342 325.36 12.408 325.389 12.452L331.725 22.308V12.65C331.725 12.4887 331.769 12.3567 331.857 12.254C331.96 12.1513 332.092 12.1 332.253 12.1H334.101C334.262 12.1 334.394 12.1513 334.497 12.254C334.6 12.3567 334.651 12.4887 334.651 12.65V26.95C334.651 27.1113 334.6 27.2433 334.497 27.346C334.394 27.4487 334.27 27.5 334.123 27.5H332.407C332.202 27.5 332.055 27.4487 331.967 27.346C331.879 27.2433 331.813 27.1773 331.769 27.148L325.455 17.512V26.972C325.455 27.1187 325.404 27.2433 325.301 27.346C325.198 27.4487 325.066 27.5 324.905 27.5H323.057ZM346.93 27.5C346.783 27.5 346.659 27.4487 346.556 27.346C346.453 27.2433 346.402 27.1187 346.402 26.972V14.806H342.332C342.185 14.806 342.061 14.7547 341.958 14.652C341.855 14.5493 341.804 14.4247 341.804 14.278V12.65C341.804 12.4887 341.855 12.3567 341.958 12.254C342.061 12.1513 342.185 12.1 342.332 12.1H353.552C353.713 12.1 353.845 12.1513 353.948 12.254C354.051 12.3567 354.102 12.4887 354.102 12.65V14.278C354.102 14.4247 354.051 14.5493 353.948 14.652C353.845 14.7547 353.713 14.806 353.552 14.806H349.504V26.972C349.504 27.1187 349.453 27.2433 349.35 27.346C349.247 27.4487 349.115 27.5 348.954 27.5H346.93ZM357.082 27.5C356.936 27.5 356.811 27.456 356.708 27.368C356.606 27.2653 356.554 27.1333 356.554 26.972V12.65C356.554 12.4887 356.606 12.3567 356.708 12.254C356.811 12.1513 356.936 12.1 357.082 12.1H359.084C359.246 12.1 359.37 12.1513 359.458 12.254C359.561 12.3567 359.612 12.4887 359.612 12.65V18.326H366.102V12.65C366.102 12.4887 366.154 12.3567 366.256 12.254C366.359 12.1513 366.484 12.1 366.63 12.1H368.61C368.772 12.1 368.904 12.1513 369.006 12.254C369.109 12.3567 369.16 12.4887 369.16 12.65V26.972C369.16 27.1187 369.109 27.2433 369.006 27.346C368.904 27.4487 368.772 27.5 368.61 27.5H366.63C366.484 27.5 366.359 27.4487 366.256 27.346C366.154 27.2433 366.102 27.1187 366.102 26.972V21.076H359.612V26.972C359.612 27.1187 359.561 27.2433 359.458 27.346C359.37 27.4487 359.246 27.5 359.084 27.5H357.082ZM373.33 27.5C373.183 27.5 373.058 27.4487 372.956 27.346C372.853 27.2433 372.802 27.1187 372.802 26.972V12.65C372.802 12.4887 372.853 12.3567 372.956 12.254C373.058 12.1513 373.183 12.1 373.33 12.1H383.01C383.171 12.1 383.303 12.1513 383.406 12.254C383.508 12.3567 383.56 12.4887 383.56 12.65V14.102C383.56 14.2487 383.508 14.3733 383.406 14.476C383.303 14.5787 383.171 14.63 383.01 14.63H375.772V18.524H382.526C382.687 18.524 382.819 18.5753 382.922 18.678C383.024 18.766 383.076 18.8907 383.076 19.052V20.416C383.076 20.5773 383.024 20.7093 382.922 20.812C382.819 20.9 382.687 20.944 382.526 20.944H375.772V24.97H383.186C383.347 24.97 383.479 25.0213 383.582 25.124C383.684 25.2267 383.736 25.3587 383.736 25.52V26.972C383.736 27.1187 383.684 27.2433 383.582 27.346C383.479 27.4487 383.347 27.5 383.186 27.5H373.33ZM392.504 27.5C392.343 27.5 392.211 27.4487 392.108 27.346C392.006 27.2433 391.954 27.1187 391.954 26.972V12.65C391.954 12.4887 392.006 12.3567 392.108 12.254C392.211 12.1513 392.343 12.1 392.504 12.1H394.242C394.448 12.1 394.602 12.1587 394.704 12.276C394.807 12.3787 394.873 12.4593 394.902 12.518L399.148 20.438L403.438 12.518C403.468 12.4593 403.534 12.3787 403.636 12.276C403.739 12.1587 403.893 12.1 404.098 12.1H405.814C405.976 12.1 406.108 12.1513 406.21 12.254C406.313 12.3567 406.364 12.4887 406.364 12.65V26.972C406.364 27.1187 406.313 27.2433 406.21 27.346C406.108 27.4487 405.976 27.5 405.814 27.5H403.966C403.805 27.5 403.673 27.4487 403.57 27.346C403.482 27.2433 403.438 27.1187 403.438 26.972V17.446L400.358 23.32C400.285 23.452 400.19 23.5693 400.072 23.672C399.955 23.76 399.801 23.804 399.61 23.804H398.708C398.503 23.804 398.342 23.76 398.224 23.672C398.122 23.5693 398.034 23.452 397.96 23.32L394.88 17.446V26.972C394.88 27.1187 394.829 27.2433 394.726 27.346C394.624 27.4487 394.499 27.5 394.352 27.5H392.504ZM410.534 27.5C410.388 27.5 410.263 27.4487 410.16 27.346C410.058 27.2433 410.006 27.1187 410.006 26.972V12.65C410.006 12.4887 410.058 12.3567 410.16 12.254C410.263 12.1513 410.388 12.1 410.534 12.1H420.214C420.376 12.1 420.508 12.1513 420.61 12.254C420.713 12.3567 420.764 12.4887 420.764 12.65V14.102C420.764 14.2487 420.713 14.3733 420.61 14.476C420.508 14.5787 420.376 14.63 420.214 14.63H412.976V18.524H419.73C419.892 18.524 420.024 18.5753 420.126 18.678C420.229 18.766 420.28 18.8907 420.28 19.052V20.416C420.28 20.5773 420.229 20.7093 420.126 20.812C420.024 20.9 419.892 20.944 419.73 20.944H412.976V24.97H420.39C420.552 24.97 420.684 25.0213 420.786 25.124C420.889 25.2267 420.94 25.3587 420.94 25.52V26.972C420.94 27.1187 420.889 27.2433 420.786 27.346C420.684 27.4487 420.552 27.5 420.39 27.5H410.534ZM427.828 27.5C427.681 27.5 427.557 27.4487 427.454 27.346C427.351 27.2433 427.3 27.1187 427.3 26.972V14.806H423.23C423.083 14.806 422.959 14.7547 422.856 14.652C422.753 14.5493 422.702 14.4247 422.702 14.278V12.65C422.702 12.4887 422.753 12.3567 422.856 12.254C422.959 12.1513 423.083 12.1 423.23 12.1H434.45C434.611 12.1 434.743 12.1513 434.846 12.254C434.949 12.3567 435 12.4887 435 12.65V14.278C435 14.4247 434.949 14.5493 434.846 14.652C434.743 14.7547 434.611 14.806 434.45 14.806H430.402V26.972C430.402 27.1187 430.351 27.2433 430.248 27.346C430.145 27.4487 430.013 27.5 429.852 27.5H427.828ZM434.895 27.5C434.778 27.5 434.668 27.456 434.565 27.368C434.477 27.28 434.433 27.17 434.433 27.038C434.433 26.9793 434.448 26.9133 434.477 26.84L439.779 12.65C439.823 12.5033 439.904 12.3787 440.021 12.276C440.153 12.1587 440.329 12.1 440.549 12.1H442.947C443.167 12.1 443.336 12.1587 443.453 12.276C443.57 12.3787 443.658 12.5033 443.717 12.65L449.019 26.84C449.034 26.9133 449.041 26.9793 449.041 27.038C449.041 27.17 448.997 27.28 448.909 27.368C448.821 27.456 448.718 27.5 448.601 27.5H446.687C446.482 27.5 446.328 27.456 446.225 27.368C446.137 27.2653 446.078 27.17 446.049 27.082L445.015 24.398H438.481L437.447 27.082C437.418 27.17 437.352 27.2653 437.249 27.368C437.161 27.456 437.014 27.5 436.809 27.5H434.895ZM439.251 21.868H444.245L441.737 15.07L439.251 21.868ZM454.664 27.5C454.43 27.5 454.246 27.4413 454.114 27.324C453.982 27.2067 453.887 27.06 453.828 26.884L449.12 12.76C449.091 12.6867 449.076 12.6207 449.076 12.562C449.076 12.43 449.12 12.32 449.208 12.232C449.296 12.144 449.406 12.1 449.538 12.1H451.474C451.68 12.1 451.834 12.1587 451.936 12.276C452.054 12.3787 452.127 12.4813 452.156 12.584L455.874 23.914L459.57 12.584C459.614 12.4813 459.688 12.3787 459.79 12.276C459.908 12.1587 460.069 12.1 460.274 12.1H462.21C462.328 12.1 462.43 12.144 462.518 12.232C462.621 12.32 462.672 12.43 462.672 12.562C462.672 12.6207 462.658 12.6867 462.628 12.76L457.92 26.884C457.862 27.06 457.766 27.2067 457.634 27.324C457.502 27.4413 457.319 27.5 457.084 27.5H454.664ZM465.748 27.5C465.602 27.5 465.477 27.4487 465.374 27.346C465.272 27.2433 465.22 27.1187 465.22 26.972V12.65C465.22 12.4887 465.272 12.3567 465.374 12.254C465.477 12.1513 465.602 12.1 465.748 12.1H475.428C475.59 12.1 475.722 12.1513 475.824 12.254C475.927 12.3567 475.978 12.4887 475.978 12.65V14.102C475.978 14.2487 475.927 14.3733 475.824 14.476C475.722 14.5787 475.59 14.63 475.428 14.63H468.19V18.524H474.944C475.106 18.524 475.238 18.5753 475.34 18.678C475.443 18.766 475.494 18.8907 475.494 19.052V20.416C475.494 20.5773 475.443 20.7093 475.34 20.812C475.238 20.9 475.106 20.944 474.944 20.944H468.19V24.97H475.604C475.766 24.97 475.898 25.0213 476 25.124C476.103 25.2267 476.154 25.3587 476.154 25.52V26.972C476.154 27.1187 476.103 27.2433 476 27.346C475.898 27.4487 475.766 27.5 475.604 27.5H465.748ZM479.654 27.5C479.507 27.5 479.383 27.4487 479.28 27.346C479.177 27.2433 479.126 27.1187 479.126 26.972V12.65C479.126 12.4887 479.177 12.3567 479.28 12.254C479.383 12.1513 479.507 12.1 479.654 12.1H485.352C487.127 12.1 488.527 12.5107 489.554 13.332C490.581 14.1533 491.094 15.3487 491.094 16.918C491.094 18.0033 490.823 18.9053 490.28 19.624C489.752 20.3427 489.041 20.8633 488.146 21.186L491.358 26.796C491.402 26.884 491.424 26.9647 491.424 27.038C491.424 27.17 491.373 27.28 491.27 27.368C491.182 27.456 491.079 27.5 490.962 27.5H488.96C488.711 27.5 488.52 27.434 488.388 27.302C488.256 27.17 488.153 27.038 488.08 26.906L485.242 21.692H482.184V26.972C482.184 27.1187 482.133 27.2433 482.03 27.346C481.942 27.4487 481.817 27.5 481.656 27.5H479.654ZM482.184 19.206H485.286C486.181 19.206 486.848 19.008 487.288 18.612C487.728 18.2013 487.948 17.6293 487.948 16.896C487.948 16.1627 487.728 15.5907 487.288 15.18C486.863 14.7547 486.195 14.542 485.286 14.542H482.184V19.206ZM499.495 27.72C498.131 27.72 496.987 27.522 496.063 27.126C495.153 26.7153 494.457 26.1873 493.973 25.542C493.503 24.882 493.254 24.1927 493.225 23.474C493.225 23.342 493.269 23.232 493.357 23.144C493.445 23.056 493.555 23.012 493.687 23.012H495.645C495.835 23.012 495.975 23.056 496.063 23.144C496.165 23.2173 496.253 23.3127 496.327 23.43C496.415 23.7087 496.583 23.9873 496.833 24.266C497.082 24.53 497.419 24.75 497.845 24.926C498.285 25.102 498.835 25.19 499.495 25.19C500.551 25.19 501.335 25.014 501.849 24.662C502.377 24.31 502.641 23.8333 502.641 23.232C502.641 22.8067 502.501 22.4693 502.223 22.22C501.944 21.956 501.511 21.7213 500.925 21.516C500.353 21.296 499.59 21.0687 498.637 20.834C497.537 20.57 496.613 20.2547 495.865 19.888C495.131 19.5067 494.574 19.03 494.193 18.458C493.826 17.886 493.643 17.16 493.643 16.28C493.643 15.4293 493.87 14.674 494.325 14.014C494.794 13.354 495.454 12.8333 496.305 12.452C497.17 12.0707 498.197 11.88 499.385 11.88C500.338 11.88 501.181 12.012 501.915 12.276C502.648 12.5253 503.257 12.8627 503.741 13.288C504.225 13.6987 504.591 14.146 504.841 14.63C505.105 15.0993 505.244 15.5613 505.259 16.016C505.259 16.1333 505.215 16.2433 505.127 16.346C505.053 16.434 504.943 16.478 504.797 16.478H502.751C502.633 16.478 502.516 16.4487 502.399 16.39C502.281 16.3313 502.186 16.2213 502.113 16.06C502.025 15.6053 501.739 15.2167 501.255 14.894C500.771 14.5713 500.147 14.41 499.385 14.41C498.593 14.41 497.955 14.5567 497.471 14.85C496.987 15.1433 496.745 15.598 496.745 16.214C496.745 16.6247 496.862 16.9693 497.097 17.248C497.346 17.512 497.735 17.7467 498.263 17.952C498.805 18.1573 499.517 18.3773 500.397 18.612C501.643 18.8907 502.663 19.2133 503.455 19.58C504.247 19.9467 504.826 20.416 505.193 20.988C505.559 21.5453 505.743 22.2567 505.743 23.122C505.743 24.09 505.479 24.9187 504.951 25.608C504.437 26.2827 503.711 26.8033 502.773 27.17C501.834 27.5367 500.741 27.72 499.495 27.72ZM509.012 27.5C508.865 27.5 508.741 27.4487 508.638 27.346C508.535 27.2433 508.484 27.1187 508.484 26.972V12.65C508.484 12.4887 508.535 12.3567 508.638 12.254C508.741 12.1513 508.865 12.1 509.012 12.1H518.692C518.853 12.1 518.985 12.1513 519.088 12.254C519.191 12.3567 519.242 12.4887 519.242 12.65V14.102C519.242 14.2487 519.191 14.3733 519.088 14.476C518.985 14.5787 518.853 14.63 518.692 14.63H511.454V18.524H518.208C518.369 18.524 518.501 18.5753 518.604 18.678C518.707 18.766 518.758 18.8907 518.758 19.052V20.416C518.758 20.5773 518.707 20.7093 518.604 20.812C518.501 20.9 518.369 20.944 518.208 20.944H511.454V24.97H518.868C519.029 24.97 519.161 25.0213 519.264 25.124C519.367 25.2267 519.418 25.3587 519.418 25.52V26.972C519.418 27.1187 519.367 27.2433 519.264 27.346C519.161 27.4487 519.029 27.5 518.868 27.5H509.012Z" fill="white"/>
<path d="M125 62V60.5H123.5V59H122V54.5H123.5V53H125V51.5H132.5V53H126.5V54.5H125V59H126.5V60.5H129.5V57.5H128V56H132.5V62H125ZM139.1 56H140.6V57.5H139.1V62H136.1V54.5H139.1V56ZM145.1 54.5V56H140.6V54.5H145.1ZM148.7 62V60.5H147.2V59H148.7V57.5H154.7V56H148.7V54.5H156.2V56H157.7V62H148.7ZM150.2 60.5H154.7V59H150.2V60.5ZM161.3 62V60.5H159.8V56H161.3V54.5H170.3V56H162.8V60.5H170.3V62H161.3ZM173.9 63.5V62H179.9V60.5H173.9V59H172.4V54.5H175.4V59H179.9V54.5H182.9V62H181.4V63.5H173.9ZM200.6 62V60.5H199.1V59H197.6V54.5H199.1V53H200.6V51.5H206.6V53H208.1V54.5H205.1V53H202.1V54.5H200.6V59H202.1V60.5H205.1V59H208.1V60.5H206.6V62H200.6ZM210.2 62V51.5H213.2V54.5H219.2V56H220.7V62H217.7V56H213.2V62H210.2ZM224.3 62V60.5H222.8V56H224.3V54.5H231.8V56H233.3V59H225.8V60.5H231.8V62H224.3ZM225.8 57.5H230.3V56H225.8V57.5ZM235.4 62V54.5H244.4V56H245.9V62H242.9V56H238.4V62H235.4Z" fill="#CE7BEC"/>
</svg>
