<svg width="64" height="68" viewBox="0 0 64 68" fill="none" xmlns="http://www.w3.org/2000/svg">
<path d="M14.7168 0.250183H23.4971C26.7845 0.250183 29.9368 1.54412 32.2607 3.84662C34.5844 6.14903 35.8895 9.27129 35.8895 12.5264V15.8553H27.1092C23.8218 15.8553 20.6695 14.5614 18.3456 12.2589C16.0218 9.95646 14.7168 6.8342 14.7168 3.5791V0.250183Z" stroke="white" stroke-width="0.5"/>
<path d="M44.2678 21.2238L35.4875 21.2238V17.8949C35.4875 14.6398 36.7925 11.5175 39.1163 9.21513C41.4401 6.91263 44.5925 5.61869 47.8799 5.61869L56.6602 5.61869V8.94761C56.6602 12.2027 55.3551 15.325 53.0313 17.6274C50.7075 19.9299 47.5552 21.2238 44.2678 21.2238Z" stroke="white" stroke-width="0.5"/>
<path d="M16.3819 39.6191L26.7485 39.6191H26.8515L26.9246 39.5464L32.4834 34.0244C32.4835 34.0243 32.4836 34.0243 32.4837 34.0242C33.2419 33.2728 34.2188 32.7751 35.2775 32.6011L35.4869 32.5667V32.3544V14.3168C35.4869 14.1465 35.5551 13.9828 35.6774 13.8617C35.7996 13.7405 35.966 13.6721 36.14 13.6721C36.3139 13.6721 36.4803 13.7405 36.6026 13.8617C36.7248 13.9828 36.793 14.1465 36.793 14.3168V32.3401V32.5524L37.0024 32.5868C38.0612 32.7608 39.0382 33.2586 39.7965 34.0101L39.9582 33.8469L39.7965 34.0101L47.1905 41.3361L47.3055 41.4501L47.4565 41.3917L58.4084 37.1615L58.4098 37.1609C59.3203 36.8028 60.3337 36.7975 61.2481 37.146C62.1623 37.4945 62.91 38.1711 63.3429 39.0403L63.3431 39.0406L16.3819 39.6191ZM16.3819 39.6191L16.3817 39.6191M16.3819 39.6191C16.3819 39.6191 16.3818 39.6191 16.3817 39.6191M16.3817 39.6191C15.0033 39.6205 13.6663 40.0847 12.589 40.9357" stroke="white" stroke-width="0.5"/>
</svg>
