<svg width="517" height="72" viewBox="0 0 517 72" fill="none" xmlns="http://www.w3.org/2000/svg">
<path d="M42.0512 16.2007C42.0512 19.542 39.3425 22.2507 36.0012 22.2507C32.6598 22.2507 29.9512 19.542 29.9512 16.2007C29.9512 12.8594 32.6598 10.1507 36.0012 10.1507C39.3425 10.1507 42.0512 12.8594 42.0512 16.2007Z" stroke="white" stroke-width="0.5"/>
<path d="M68.1996 19.7999V19.8002V27.9002C68.1996 28.0859 68.1259 28.2639 67.9946 28.3952C67.8633 28.5265 67.6853 28.6002 67.4996 28.6002H4.49961C4.31396 28.6002 4.13591 28.5265 4.00464 28.3952C3.87336 28.2639 3.79961 28.0859 3.79961 27.9002L3.79961 19.8002L3.79961 19.7999C3.79941 19.6794 3.83049 19.5609 3.88981 19.456C3.94913 19.3511 4.03466 19.2633 4.13803 19.2014L4.13812 19.2013L35.6381 0.301344L35.6388 0.300911C35.7476 0.235015 35.8724 0.200183 35.9996 0.200183C36.1268 0.200183 36.2516 0.235015 36.3604 0.300913L36.3611 0.301342L67.8611 19.2013L67.8612 19.2014C67.9646 19.2633 68.0501 19.3511 68.1094 19.456C68.1687 19.5609 68.1998 19.6794 68.1996 19.7999ZM5.29671 20.1399L5.19961 20.1982V20.3114V27.0002V27.2002H5.39961H66.5996H66.7996V27.0002V20.3114V20.1982L66.7025 20.1399L36.1025 1.77994L35.9996 1.7182L35.8967 1.77994L5.29671 20.1399Z" stroke="white" stroke-width="0.4"/>
<path d="M68.2 64.7994V64.9994H68.4H70.2C70.6243 64.9994 71.0313 65.168 71.3314 65.468C71.6314 65.7681 71.8 66.1751 71.8 66.5994V71.0994C71.8 71.2851 71.7262 71.4631 71.595 71.5944C71.4637 71.7257 71.2857 71.7994 71.1 71.7994H0.9C0.71435 71.7994 0.536304 71.7257 0.405028 71.5944C0.273751 71.4631 0.2 71.2851 0.2 71.0994V66.5994C0.2 66.1751 0.368574 65.7681 0.668633 65.468C0.968693 65.168 1.37566 64.9994 1.8 64.9994H3.6H3.8V64.7994V62.9994C3.8 62.5751 3.96857 62.1681 4.26863 61.868C4.56869 61.568 4.97566 61.3994 5.4 61.3994H66.6C67.0243 61.3994 67.4313 61.568 67.7314 61.868C68.0314 62.1681 68.2 62.5751 68.2 62.9994V64.7994ZM5.4 62.7994H5.2V62.9994V64.7994V64.9994H5.4H66.6H66.8V64.7994V62.9994V62.7994H66.6H5.4ZM70.2 70.3994H70.4V70.1994V66.5994V66.3994H70.2H1.8H1.6V66.5994V70.1994V70.3994H1.8H70.2Z" stroke="white" stroke-width="0.4"/>
<path d="M10.2 56.7002V33.3002C10.2 32.9939 10.294 32.7075 10.4514 32.5029C10.6079 32.2994 10.8073 32.2002 11 32.2002C11.1927 32.2002 11.3921 32.2994 11.5486 32.5029C11.706 32.7075 11.8 32.9939 11.8 33.3002V56.7002C11.8 57.0065 11.706 57.2928 11.5486 57.4975C11.3921 57.7009 11.1927 57.8002 11 57.8002C10.8073 57.8002 10.6079 57.7009 10.4514 57.4975C10.294 57.2928 10.2 57.0065 10.2 56.7002Z" stroke="white" stroke-width="0.4"/>
<path d="M17.2 56.7002V33.3002C17.2 32.9939 17.294 32.7075 17.4514 32.5029C17.6079 32.2994 17.8073 32.2002 18 32.2002C18.1927 32.2002 18.3921 32.2994 18.5486 32.5029C18.706 32.7075 18.8 32.9939 18.8 33.3002V56.7002C18.8 57.0065 18.706 57.2928 18.5486 57.4975C18.3921 57.7009 18.1927 57.8002 18 57.8002C17.8073 57.8002 17.6079 57.7009 17.4514 57.4975C17.294 57.2928 17.2 57.0065 17.2 56.7002Z" stroke="white" stroke-width="0.4"/>
<path d="M39.2 56.7002V33.3002C39.2 32.9939 39.294 32.7075 39.4514 32.5029C39.6079 32.2994 39.8073 32.2002 40 32.2002C40.1927 32.2002 40.3921 32.2994 40.5486 32.5029C40.706 32.7075 40.8 32.9939 40.8 33.3002V56.7002C40.8 57.0065 40.706 57.2928 40.5486 57.4975C40.3921 57.7009 40.1927 57.8002 40 57.8002C39.8073 57.8002 39.6079 57.7009 39.4514 57.4975C39.294 57.2928 39.2 57.0065 39.2 56.7002Z" stroke="white" stroke-width="0.4"/>
<path d="M31.2 56.7002V33.3002C31.2 32.9939 31.294 32.7075 31.4514 32.5029C31.6079 32.2994 31.8073 32.2002 32 32.2002C32.1927 32.2002 32.3921 32.2994 32.5486 32.5029C32.706 32.7075 32.8 32.9939 32.8 33.3002V56.7002C32.8 57.0065 32.706 57.2928 32.5486 57.4975C32.3921 57.7009 32.1927 57.8002 32 57.8002C31.8073 57.8002 31.6079 57.7009 31.4514 57.4975C31.294 57.2928 31.2 57.0065 31.2 56.7002Z" stroke="white" stroke-width="0.4"/>
<path d="M53.2 56.7002V33.3002C53.2 32.9939 53.294 32.7075 53.4514 32.5029C53.6079 32.2994 53.8073 32.2002 54 32.2002C54.1927 32.2002 54.3921 32.2994 54.5486 32.5029C54.706 32.7075 54.8 32.9939 54.8 33.3002V56.7002C54.8 57.0065 54.706 57.2928 54.5486 57.4975C54.3921 57.7009 54.1927 57.8002 54 57.8002C53.8073 57.8002 53.6079 57.7009 53.4514 57.4975C53.294 57.2928 53.2 57.0065 53.2 56.7002Z" stroke="white" stroke-width="0.4"/>
<path d="M60.2 56.7002V33.3002C60.2 32.9939 60.294 32.7075 60.4514 32.5029C60.6079 32.2994 60.8073 32.2002 61 32.2002C61.1927 32.2002 61.3921 32.2994 61.5486 32.5029C61.706 32.7075 61.8 32.9939 61.8 33.3002V56.7002C61.8 57.0065 61.706 57.2928 61.5486 57.4975C61.3921 57.7009 61.1927 57.8002 61 57.8002C60.8073 57.8002 60.6079 57.7009 60.4514 57.4975C60.294 57.2928 60.2 57.0065 60.2 56.7002Z" stroke="white" stroke-width="0.4"/>
<path d="M125.86 26.5C125.66 26.5 125.5 26.4467 125.38 26.34C125.273 26.22 125.2 26.0733 125.16 25.9L122.78 13.08C122.78 13.04 122.773 13.0067 122.76 12.98C122.76 12.9533 122.76 12.9333 122.76 12.92C122.76 12.8 122.8 12.7 122.88 12.62C122.973 12.54 123.073 12.5 123.18 12.5H124.94C125.273 12.5 125.46 12.6333 125.5 12.9L127.16 21.96L128.96 16.1C129 15.9933 129.067 15.8867 129.16 15.78C129.267 15.66 129.42 15.6 129.62 15.6H130.7C130.913 15.6 131.067 15.66 131.16 15.78C131.253 15.8867 131.313 15.9933 131.34 16.1L133.16 21.94L134.82 12.9C134.86 12.6333 135.047 12.5 135.38 12.5H137.14C137.247 12.5 137.34 12.54 137.42 12.62C137.5 12.7 137.54 12.8 137.54 12.92C137.54 12.9333 137.54 12.9533 137.54 12.98C137.54 13.0067 137.533 13.04 137.52 13.08L135.14 25.9C135.113 26.0733 135.04 26.22 134.92 26.34C134.8 26.4467 134.64 26.5 134.44 26.5H133.1C132.9 26.5 132.74 26.4467 132.62 26.34C132.513 26.2333 132.44 26.12 132.4 26L130.16 19.32L127.92 26C127.867 26.12 127.787 26.2333 127.68 26.34C127.573 26.4467 127.413 26.5 127.2 26.5H125.86ZM140.368 26.5C140.235 26.5 140.121 26.46 140.028 26.38C139.935 26.2867 139.888 26.1667 139.888 26.02V13C139.888 12.8533 139.935 12.7333 140.028 12.64C140.121 12.5467 140.235 12.5 140.368 12.5H142.188C142.335 12.5 142.448 12.5467 142.528 12.64C142.621 12.7333 142.668 12.8533 142.668 13V18.16H148.568V13C148.568 12.8533 148.615 12.7333 148.708 12.64C148.801 12.5467 148.915 12.5 149.048 12.5H150.848C150.995 12.5 151.115 12.5467 151.208 12.64C151.301 12.7333 151.348 12.8533 151.348 13V26.02C151.348 26.1533 151.301 26.2667 151.208 26.36C151.115 26.4533 150.995 26.5 150.848 26.5H149.048C148.915 26.5 148.801 26.4533 148.708 26.36C148.615 26.2667 148.568 26.1533 148.568 26.02V20.66H142.668V26.02C142.668 26.1533 142.621 26.2667 142.528 26.36C142.448 26.4533 142.335 26.5 142.188 26.5H140.368ZM153.598 26.5C153.492 26.5 153.392 26.46 153.298 26.38C153.218 26.3 153.178 26.2 153.178 26.08C153.178 26.0267 153.192 25.9667 153.218 25.9L158.038 13C158.078 12.8667 158.152 12.7533 158.258 12.66C158.378 12.5533 158.538 12.5 158.738 12.5H160.918C161.118 12.5 161.272 12.5533 161.378 12.66C161.485 12.7533 161.565 12.8667 161.618 13L166.438 25.9C166.452 25.9667 166.458 26.0267 166.458 26.08C166.458 26.2 166.418 26.3 166.338 26.38C166.258 26.46 166.165 26.5 166.058 26.5H164.318C164.132 26.5 163.992 26.46 163.898 26.38C163.818 26.2867 163.765 26.2 163.738 26.12L162.798 23.68H156.858L155.918 26.12C155.892 26.2 155.832 26.2867 155.738 26.38C155.658 26.46 155.525 26.5 155.338 26.5H153.598ZM157.558 21.38H162.098L159.818 15.2L157.558 21.38ZM170.421 26.5C170.287 26.5 170.174 26.4533 170.081 26.36C169.987 26.2667 169.941 26.1533 169.941 26.02V14.96H166.241C166.107 14.96 165.994 14.9133 165.901 14.82C165.807 14.7267 165.761 14.6133 165.761 14.48V13C165.761 12.8533 165.807 12.7333 165.901 12.64C165.994 12.5467 166.107 12.5 166.241 12.5H176.441C176.587 12.5 176.707 12.5467 176.801 12.64C176.894 12.7333 176.941 12.8533 176.941 13V14.48C176.941 14.6133 176.894 14.7267 176.801 14.82C176.707 14.9133 176.587 14.96 176.441 14.96H172.761V26.02C172.761 26.1533 172.714 26.2667 172.621 26.36C172.527 26.4533 172.407 26.5 172.261 26.5H170.421ZM185.118 26.5C184.918 26.5 184.758 26.4467 184.638 26.34C184.531 26.22 184.458 26.0733 184.418 25.9L182.038 13.08C182.038 13.04 182.031 13.0067 182.018 12.98C182.018 12.9533 182.018 12.9333 182.018 12.92C182.018 12.8 182.058 12.7 182.138 12.62C182.231 12.54 182.331 12.5 182.438 12.5H184.198C184.531 12.5 184.718 12.6333 184.758 12.9L186.418 21.96L188.218 16.1C188.258 15.9933 188.324 15.8867 188.418 15.78C188.524 15.66 188.678 15.6 188.878 15.6H189.958C190.171 15.6 190.324 15.66 190.418 15.78C190.511 15.8867 190.571 15.9933 190.598 16.1L192.418 21.94L194.078 12.9C194.118 12.6333 194.304 12.5 194.638 12.5H196.398C196.504 12.5 196.598 12.54 196.678 12.62C196.758 12.7 196.798 12.8 196.798 12.92C196.798 12.9333 196.798 12.9533 196.798 12.98C196.798 13.0067 196.791 13.04 196.778 13.08L194.398 25.9C194.371 26.0733 194.298 26.22 194.178 26.34C194.058 26.4467 193.898 26.5 193.698 26.5H192.358C192.158 26.5 191.998 26.4467 191.878 26.34C191.771 26.2333 191.698 26.12 191.658 26L189.418 19.32L187.178 26C187.124 26.12 187.044 26.2333 186.938 26.34C186.831 26.4467 186.671 26.5 186.458 26.5H185.118ZM199.626 26.5C199.493 26.5 199.379 26.4533 199.286 26.36C199.193 26.2667 199.146 26.1533 199.146 26.02V13C199.146 12.8533 199.193 12.7333 199.286 12.64C199.379 12.5467 199.493 12.5 199.626 12.5H208.426C208.573 12.5 208.693 12.5467 208.786 12.64C208.879 12.7333 208.926 12.8533 208.926 13V14.32C208.926 14.4533 208.879 14.5667 208.786 14.66C208.693 14.7533 208.573 14.8 208.426 14.8H201.846V18.34H207.986C208.133 18.34 208.253 18.3867 208.346 18.48C208.439 18.56 208.486 18.6733 208.486 18.82V20.06C208.486 20.2067 208.439 20.3267 208.346 20.42C208.253 20.5 208.133 20.54 207.986 20.54H201.846V24.2H208.586C208.733 24.2 208.853 24.2467 208.946 24.34C209.039 24.4333 209.086 24.5533 209.086 24.7V26.02C209.086 26.1533 209.039 26.2667 208.946 26.36C208.853 26.4533 208.733 26.5 208.586 26.5H199.626ZM212.067 26.5C211.934 26.5 211.821 26.4533 211.727 26.36C211.634 26.2667 211.587 26.1533 211.587 26.02V13C211.587 12.8533 211.634 12.7333 211.727 12.64C211.821 12.5467 211.934 12.5 212.067 12.5H217.867C218.947 12.5 219.827 12.6667 220.507 13C221.187 13.32 221.687 13.7667 222.007 14.34C222.341 14.9133 222.507 15.58 222.507 16.34C222.507 16.8467 222.414 17.2933 222.227 17.68C222.054 18.0533 221.834 18.36 221.567 18.6C221.314 18.84 221.061 19.0267 220.807 19.16C221.327 19.4 221.787 19.8 222.187 20.36C222.587 20.92 222.787 21.5867 222.787 22.36C222.787 23.16 222.607 23.8733 222.247 24.5C221.887 25.1267 221.354 25.62 220.647 25.98C219.941 26.3267 219.067 26.5 218.027 26.5H212.067ZM214.367 24.38H217.707C218.427 24.38 218.974 24.1867 219.347 23.8C219.721 23.4 219.907 22.92 219.907 22.36C219.907 21.7733 219.714 21.2867 219.327 20.9C218.954 20.5133 218.414 20.32 217.707 20.32H214.367V24.38ZM214.367 18.24H217.507C218.214 18.24 218.741 18.0733 219.087 17.74C219.447 17.3933 219.627 16.9467 219.627 16.4C219.627 15.84 219.447 15.4067 219.087 15.1C218.741 14.78 218.214 14.62 217.507 14.62H214.367V18.24ZM234.529 26.7C233.595 26.7 232.789 26.5867 232.109 26.36C231.429 26.1333 230.862 25.84 230.409 25.48C229.969 25.1067 229.635 24.7067 229.409 24.28C229.182 23.84 229.062 23.4067 229.049 22.98C229.049 22.86 229.089 22.7667 229.169 22.7C229.262 22.62 229.369 22.58 229.489 22.58H231.289C231.422 22.58 231.535 22.6067 231.629 22.66C231.722 22.7133 231.802 22.82 231.869 22.98C231.989 23.34 232.182 23.6267 232.449 23.84C232.729 24.0533 233.049 24.2067 233.409 24.3C233.769 24.38 234.149 24.42 234.549 24.42C235.349 24.42 235.982 24.2333 236.449 23.86C236.929 23.4733 237.169 22.9267 237.169 22.22C237.169 21.5133 236.949 21.0067 236.509 20.7C236.069 20.38 235.455 20.22 234.669 20.22H232.609C232.462 20.22 232.342 20.18 232.249 20.1C232.155 20.0067 232.109 19.8867 232.109 19.74V18.9C232.109 18.7667 232.135 18.6533 232.189 18.56C232.255 18.4533 232.322 18.3667 232.389 18.3L235.969 14.8H230.249C230.102 14.8 229.982 14.7533 229.889 14.66C229.809 14.5667 229.769 14.4533 229.769 14.32V13C229.769 12.8533 229.809 12.7333 229.889 12.64C229.982 12.5467 230.102 12.5 230.249 12.5H238.829C238.975 12.5 239.095 12.5467 239.189 12.64C239.282 12.7333 239.329 12.8533 239.329 13V14.2C239.329 14.32 239.302 14.4267 239.249 14.52C239.195 14.6133 239.135 14.6933 239.069 14.76L235.609 18.32L235.849 18.34C236.662 18.4067 237.382 18.5933 238.009 18.9C238.649 19.1933 239.142 19.6267 239.489 20.2C239.849 20.7733 240.029 21.4933 240.029 22.36C240.029 23.2667 239.789 24.0467 239.309 24.7C238.842 25.34 238.195 25.8333 237.369 26.18C236.542 26.5267 235.595 26.7 234.529 26.7ZM242.586 26.5C242.453 26.5 242.34 26.4533 242.246 26.36C242.153 26.2667 242.106 26.1533 242.106 26.02V24.04C242.106 23.8933 242.153 23.7733 242.246 23.68C242.34 23.5867 242.453 23.54 242.586 23.54H244.586C244.72 23.54 244.833 23.5867 244.926 23.68C245.02 23.7733 245.066 23.8933 245.066 24.04V26.02C245.066 26.1533 245.02 26.2667 244.926 26.36C244.833 26.4533 244.72 26.5 244.586 26.5H242.586ZM252.603 26.7C251.656 26.7 250.85 26.56 250.183 26.28C249.516 26 248.97 25.6133 248.543 25.12C248.116 24.6267 247.796 24.06 247.583 23.42C247.37 22.7667 247.243 22.0733 247.203 21.34C247.19 20.98 247.176 20.5867 247.163 20.16C247.163 19.72 247.163 19.28 247.163 18.84C247.176 18.4 247.19 17.9933 247.203 17.62C247.23 16.8867 247.356 16.2 247.583 15.56C247.81 14.9067 248.136 14.34 248.563 13.86C249.003 13.38 249.556 13 250.223 12.72C250.89 12.44 251.683 12.3 252.603 12.3C253.536 12.3 254.336 12.44 255.003 12.72C255.67 13 256.216 13.38 256.643 13.86C257.083 14.34 257.41 14.9067 257.623 15.56C257.85 16.2 257.976 16.8867 258.003 17.62C258.03 17.9933 258.043 18.4 258.043 18.84C258.043 19.28 258.043 19.72 258.043 20.16C258.043 20.5867 258.03 20.98 258.003 21.34C257.976 22.0733 257.856 22.7667 257.643 23.42C257.43 24.06 257.11 24.6267 256.683 25.12C256.256 25.6133 255.703 26 255.023 26.28C254.356 26.56 253.55 26.7 252.603 26.7ZM252.603 24.4C253.47 24.4 254.103 24.12 254.503 23.56C254.916 22.9867 255.13 22.2133 255.143 21.24C255.17 20.8533 255.183 20.4667 255.183 20.08C255.183 19.68 255.183 19.28 255.183 18.88C255.183 18.48 255.17 18.1 255.143 17.74C255.13 16.7933 254.916 16.0333 254.503 15.46C254.103 14.8733 253.47 14.58 252.603 14.58C251.75 14.58 251.116 14.8733 250.703 15.46C250.303 16.0333 250.09 16.7933 250.063 17.74C250.063 18.1 250.056 18.48 250.043 18.88C250.043 19.28 250.043 19.68 250.043 20.08C250.056 20.4667 250.063 20.8533 250.063 21.24C250.09 22.2133 250.31 22.9867 250.723 23.56C251.136 24.12 251.763 24.4 252.603 24.4ZM265.818 26.5C265.671 26.5 265.551 26.4533 265.458 26.36C265.364 26.2667 265.318 26.1533 265.318 26.02V13C265.318 12.8533 265.364 12.7333 265.458 12.64C265.551 12.5467 265.671 12.5 265.818 12.5H267.398C267.584 12.5 267.724 12.5533 267.818 12.66C267.911 12.7533 267.971 12.8267 267.998 12.88L271.858 20.08L275.758 12.88C275.784 12.8267 275.844 12.7533 275.938 12.66C276.031 12.5533 276.171 12.5 276.358 12.5H277.918C278.064 12.5 278.184 12.5467 278.278 12.64C278.371 12.7333 278.418 12.8533 278.418 13V26.02C278.418 26.1533 278.371 26.2667 278.278 26.36C278.184 26.4533 278.064 26.5 277.918 26.5H276.238C276.091 26.5 275.971 26.4533 275.878 26.36C275.798 26.2667 275.758 26.1533 275.758 26.02V17.36L272.958 22.7C272.891 22.82 272.804 22.9267 272.698 23.02C272.591 23.1 272.451 23.14 272.278 23.14H271.458C271.271 23.14 271.124 23.1 271.018 23.02C270.924 22.9267 270.844 22.82 270.778 22.7L267.978 17.36V26.02C267.978 26.1533 267.931 26.2667 267.838 26.36C267.744 26.4533 267.631 26.5 267.498 26.5H265.818ZM282.009 26.5C281.875 26.5 281.762 26.4533 281.669 26.36C281.575 26.2667 281.529 26.1533 281.529 26.02V13C281.529 12.8533 281.575 12.7333 281.669 12.64C281.762 12.5467 281.875 12.5 282.009 12.5H290.809C290.955 12.5 291.075 12.5467 291.169 12.64C291.262 12.7333 291.309 12.8533 291.309 13V14.32C291.309 14.4533 291.262 14.5667 291.169 14.66C291.075 14.7533 290.955 14.8 290.809 14.8H284.229V18.34H290.369C290.515 18.34 290.635 18.3867 290.729 18.48C290.822 18.56 290.869 18.6733 290.869 18.82V20.06C290.869 20.2067 290.822 20.3267 290.729 20.42C290.635 20.5 290.515 20.54 290.369 20.54H284.229V24.2H290.969C291.115 24.2 291.235 24.2467 291.329 24.34C291.422 24.4333 291.469 24.5533 291.469 24.7V26.02C291.469 26.1533 291.422 26.2667 291.329 26.36C291.235 26.4533 291.115 26.5 290.969 26.5H282.009ZM293.11 26.5C293.003 26.5 292.903 26.46 292.81 26.38C292.73 26.3 292.69 26.2 292.69 26.08C292.69 26.0267 292.703 25.9667 292.73 25.9L297.55 13C297.59 12.8667 297.663 12.7533 297.77 12.66C297.89 12.5533 298.05 12.5 298.25 12.5H300.43C300.63 12.5 300.783 12.5533 300.89 12.66C300.997 12.7533 301.077 12.8667 301.13 13L305.95 25.9C305.963 25.9667 305.97 26.0267 305.97 26.08C305.97 26.2 305.93 26.3 305.85 26.38C305.77 26.46 305.677 26.5 305.57 26.5H303.83C303.643 26.5 303.503 26.46 303.41 26.38C303.33 26.2867 303.277 26.2 303.25 26.12L302.31 23.68H296.37L295.43 26.12C295.403 26.2 295.343 26.2867 295.25 26.38C295.17 26.46 295.037 26.5 294.85 26.5H293.11ZM297.07 21.38H301.61L299.33 15.2L297.07 21.38ZM308.317 26.5C308.184 26.5 308.071 26.4533 307.977 26.36C307.884 26.2667 307.837 26.1533 307.837 26.02V13C307.837 12.8533 307.884 12.7333 307.977 12.64C308.071 12.5467 308.184 12.5 308.317 12.5H309.857C310.044 12.5 310.177 12.5467 310.257 12.64C310.351 12.72 310.411 12.78 310.437 12.82L316.197 21.78V13C316.197 12.8533 316.237 12.7333 316.317 12.64C316.411 12.5467 316.531 12.5 316.677 12.5H318.357C318.504 12.5 318.624 12.5467 318.717 12.64C318.811 12.7333 318.857 12.8533 318.857 13V26C318.857 26.1467 318.811 26.2667 318.717 26.36C318.624 26.4533 318.511 26.5 318.377 26.5H316.817C316.631 26.5 316.497 26.4533 316.417 26.36C316.337 26.2667 316.277 26.2067 316.237 26.18L310.497 17.42V26.02C310.497 26.1533 310.451 26.2667 310.357 26.36C310.264 26.4533 310.144 26.5 309.997 26.5H308.317ZM326.838 26.7C325.598 26.7 324.558 26.52 323.718 26.16C322.891 25.7867 322.258 25.3067 321.818 24.72C321.391 24.12 321.165 23.4933 321.138 22.84C321.138 22.72 321.178 22.62 321.258 22.54C321.338 22.46 321.438 22.42 321.558 22.42H323.338C323.511 22.42 323.638 22.46 323.718 22.54C323.811 22.6067 323.891 22.6933 323.958 22.8C324.038 23.0533 324.191 23.3067 324.418 23.56C324.645 23.8 324.951 24 325.338 24.16C325.738 24.32 326.238 24.4 326.838 24.4C327.798 24.4 328.511 24.24 328.978 23.92C329.458 23.6 329.698 23.1667 329.698 22.62C329.698 22.2333 329.571 21.9267 329.318 21.7C329.065 21.46 328.671 21.2467 328.138 21.06C327.618 20.86 326.925 20.6533 326.058 20.44C325.058 20.2 324.218 19.9133 323.538 19.58C322.871 19.2333 322.365 18.8 322.018 18.28C321.685 17.76 321.518 17.1 321.518 16.3C321.518 15.5267 321.725 14.84 322.138 14.24C322.565 13.64 323.165 13.1667 323.938 12.82C324.725 12.4733 325.658 12.3 326.738 12.3C327.605 12.3 328.371 12.42 329.038 12.66C329.705 12.8867 330.258 13.1933 330.698 13.58C331.138 13.9533 331.471 14.36 331.698 14.8C331.938 15.2267 332.065 15.6467 332.078 16.06C332.078 16.1667 332.038 16.2667 331.958 16.36C331.891 16.44 331.791 16.48 331.658 16.48H329.798C329.691 16.48 329.585 16.4533 329.478 16.4C329.371 16.3467 329.285 16.2467 329.218 16.1C329.138 15.6867 328.878 15.3333 328.438 15.04C327.998 14.7467 327.431 14.6 326.738 14.6C326.018 14.6 325.438 14.7333 324.998 15C324.558 15.2667 324.338 15.68 324.338 16.24C324.338 16.6133 324.445 16.9267 324.658 17.18C324.885 17.42 325.238 17.6333 325.718 17.82C326.211 18.0067 326.858 18.2067 327.658 18.42C328.791 18.6733 329.718 18.9667 330.438 19.3C331.158 19.6333 331.685 20.06 332.018 20.58C332.351 21.0867 332.518 21.7333 332.518 22.52C332.518 23.4 332.278 24.1533 331.798 24.78C331.331 25.3933 330.671 25.8667 329.818 26.2C328.965 26.5333 327.971 26.7 326.838 26.7ZM339.86 26.5C339.727 26.5 339.614 26.4533 339.52 26.36C339.427 26.2667 339.38 26.1533 339.38 26.02V13C339.38 12.8533 339.427 12.7333 339.52 12.64C339.614 12.5467 339.727 12.5 339.86 12.5H348.54C348.687 12.5 348.807 12.5467 348.9 12.64C348.994 12.7333 349.04 12.8533 349.04 13V14.4C349.04 14.5467 348.994 14.6667 348.9 14.76C348.807 14.84 348.687 14.88 348.54 14.88H342.12V18.68H348.14C348.287 18.68 348.407 18.7267 348.5 18.82C348.594 18.9133 348.64 19.0333 348.64 19.18V20.58C348.64 20.7133 348.594 20.8267 348.5 20.92C348.407 21.0133 348.287 21.06 348.14 21.06H342.12V26.02C342.12 26.1533 342.074 26.2667 341.98 26.36C341.887 26.4533 341.767 26.5 341.62 26.5H339.86ZM356.674 26.7C355.488 26.7 354.468 26.5067 353.614 26.12C352.761 25.72 352.094 25.1133 351.614 24.3C351.134 23.4733 350.874 22.4467 350.834 21.22C350.821 20.6467 350.814 20.08 350.814 19.52C350.814 18.96 350.821 18.3867 350.834 17.8C350.874 16.5867 351.141 15.5733 351.634 14.76C352.128 13.9467 352.801 13.3333 353.654 12.92C354.521 12.5067 355.528 12.3 356.674 12.3C357.821 12.3 358.828 12.5067 359.694 12.92C360.561 13.3333 361.241 13.9467 361.734 14.76C362.228 15.5733 362.494 16.5867 362.534 17.8C362.561 18.3867 362.574 18.96 362.574 19.52C362.574 20.08 362.561 20.6467 362.534 21.22C362.494 22.4467 362.234 23.4733 361.754 24.3C361.274 25.1133 360.601 25.72 359.734 26.12C358.881 26.5067 357.861 26.7 356.674 26.7ZM356.674 24.4C357.541 24.4 358.248 24.1467 358.794 23.64C359.341 23.12 359.634 22.28 359.674 21.12C359.701 20.5333 359.714 19.9933 359.714 19.5C359.714 18.9933 359.701 18.4533 359.674 17.88C359.648 17.1067 359.501 16.48 359.234 16C358.981 15.5067 358.634 15.1533 358.194 14.94C357.754 14.7133 357.248 14.6 356.674 14.6C356.114 14.6 355.614 14.7133 355.174 14.94C354.734 15.1533 354.381 15.5067 354.114 16C353.861 16.48 353.721 17.1067 353.694 17.88C353.681 18.4533 353.674 18.9933 353.674 19.5C353.674 19.9933 353.681 20.5333 353.694 21.12C353.734 22.28 354.028 23.12 354.574 23.64C355.121 24.1467 355.821 24.4 356.674 24.4ZM365.681 26.5C365.547 26.5 365.434 26.4533 365.341 26.36C365.247 26.2667 365.201 26.1533 365.201 26.02V13C365.201 12.8533 365.247 12.7333 365.341 12.64C365.434 12.5467 365.547 12.5 365.681 12.5H370.861C372.474 12.5 373.747 12.8733 374.681 13.62C375.614 14.3667 376.081 15.4533 376.081 16.88C376.081 17.8667 375.834 18.6867 375.341 19.34C374.861 19.9933 374.214 20.4667 373.401 20.76L376.321 25.86C376.361 25.94 376.381 26.0133 376.381 26.08C376.381 26.2 376.334 26.3 376.241 26.38C376.161 26.46 376.067 26.5 375.961 26.5H374.141C373.914 26.5 373.741 26.44 373.621 26.32C373.501 26.2 373.407 26.08 373.341 25.96L370.761 21.22H367.981V26.02C367.981 26.1533 367.934 26.2667 367.841 26.36C367.761 26.4533 367.647 26.5 367.501 26.5H365.681ZM367.981 18.96H370.801C371.614 18.96 372.221 18.78 372.621 18.42C373.021 18.0467 373.221 17.5267 373.221 16.86C373.221 16.1933 373.021 15.6733 372.621 15.3C372.234 14.9133 371.627 14.72 370.801 14.72H367.981V18.96ZM383.708 26.5C383.575 26.5 383.461 26.4533 383.368 26.36C383.275 26.2667 383.228 26.1533 383.228 26.02V13C383.228 12.8533 383.275 12.7333 383.368 12.64C383.461 12.5467 383.575 12.5 383.708 12.5H392.508C392.655 12.5 392.775 12.5467 392.868 12.64C392.961 12.7333 393.008 12.8533 393.008 13V14.32C393.008 14.4533 392.961 14.5667 392.868 14.66C392.775 14.7533 392.655 14.8 392.508 14.8H385.928V18.34H392.068C392.215 18.34 392.335 18.3867 392.428 18.48C392.521 18.56 392.568 18.6733 392.568 18.82V20.06C392.568 20.2067 392.521 20.3267 392.428 20.42C392.335 20.5 392.215 20.54 392.068 20.54H385.928V24.2H392.668C392.815 24.2 392.935 24.2467 393.028 24.34C393.121 24.4333 393.168 24.5533 393.168 24.7V26.02C393.168 26.1533 393.121 26.2667 393.028 26.36C392.935 26.4533 392.815 26.5 392.668 26.5H383.708ZM396.149 26.5C396.016 26.5 395.903 26.4533 395.809 26.36C395.716 26.2667 395.669 26.1533 395.669 26.02V13C395.669 12.8533 395.716 12.7333 395.809 12.64C395.903 12.5467 396.016 12.5 396.149 12.5H397.689C397.876 12.5 398.009 12.5467 398.089 12.64C398.183 12.72 398.243 12.78 398.269 12.82L404.029 21.78V13C404.029 12.8533 404.069 12.7333 404.149 12.64C404.243 12.5467 404.363 12.5 404.509 12.5H406.189C406.336 12.5 406.456 12.5467 406.549 12.64C406.643 12.7333 406.689 12.8533 406.689 13V26C406.689 26.1467 406.643 26.2667 406.549 26.36C406.456 26.4533 406.343 26.5 406.209 26.5H404.649C404.463 26.5 404.329 26.4533 404.249 26.36C404.169 26.2667 404.109 26.2067 404.069 26.18L398.329 17.42V26.02C398.329 26.1533 398.283 26.2667 398.189 26.36C398.096 26.4533 397.976 26.5 397.829 26.5H396.149ZM413.37 26.5C413.237 26.5 413.123 26.4533 413.03 26.36C412.937 26.2667 412.89 26.1533 412.89 26.02V14.96H409.19C409.057 14.96 408.943 14.9133 408.85 14.82C408.757 14.7267 408.71 14.6133 408.71 14.48V13C408.71 12.8533 408.757 12.7333 408.85 12.64C408.943 12.5467 409.057 12.5 409.19 12.5H419.39C419.537 12.5 419.657 12.5467 419.75 12.64C419.843 12.7333 419.89 12.8533 419.89 13V14.48C419.89 14.6133 419.843 14.7267 419.75 14.82C419.657 14.9133 419.537 14.96 419.39 14.96H415.71V26.02C415.71 26.1533 415.663 26.2667 415.57 26.36C415.477 26.4533 415.357 26.5 415.21 26.5H413.37ZM422.399 26.5C422.266 26.5 422.153 26.4533 422.059 26.36C421.966 26.2667 421.919 26.1533 421.919 26.02V13C421.919 12.8533 421.966 12.7333 422.059 12.64C422.153 12.5467 422.266 12.5 422.399 12.5H431.199C431.346 12.5 431.466 12.5467 431.559 12.64C431.653 12.7333 431.699 12.8533 431.699 13V14.32C431.699 14.4533 431.653 14.5667 431.559 14.66C431.466 14.7533 431.346 14.8 431.199 14.8H424.619V18.34H430.759C430.906 18.34 431.026 18.3867 431.119 18.48C431.213 18.56 431.259 18.6733 431.259 18.82V20.06C431.259 20.2067 431.213 20.3267 431.119 20.42C431.026 20.5 430.906 20.54 430.759 20.54H424.619V24.2H431.359C431.506 24.2 431.626 24.2467 431.719 24.34C431.813 24.4333 431.859 24.5533 431.859 24.7V26.02C431.859 26.1533 431.813 26.2667 431.719 26.36C431.626 26.4533 431.506 26.5 431.359 26.5H422.399ZM434.841 26.5C434.707 26.5 434.594 26.4533 434.501 26.36C434.407 26.2667 434.361 26.1533 434.361 26.02V13C434.361 12.8533 434.407 12.7333 434.501 12.64C434.594 12.5467 434.707 12.5 434.841 12.5H440.021C441.634 12.5 442.907 12.8733 443.841 13.62C444.774 14.3667 445.241 15.4533 445.241 16.88C445.241 17.8667 444.994 18.6867 444.501 19.34C444.021 19.9933 443.374 20.4667 442.561 20.76L445.481 25.86C445.521 25.94 445.541 26.0133 445.541 26.08C445.541 26.2 445.494 26.3 445.401 26.38C445.321 26.46 445.227 26.5 445.121 26.5H443.301C443.074 26.5 442.901 26.44 442.781 26.32C442.661 26.2 442.567 26.08 442.501 25.96L439.921 21.22H437.141V26.02C437.141 26.1533 437.094 26.2667 437.001 26.36C436.921 26.4533 436.807 26.5 436.661 26.5H434.841ZM437.141 18.96H439.961C440.774 18.96 441.381 18.78 441.781 18.42C442.181 18.0467 442.381 17.5267 442.381 16.86C442.381 16.1933 442.181 15.6733 441.781 15.3C441.394 14.9133 440.787 14.72 439.961 14.72H437.141V18.96ZM448.298 26.5C448.164 26.5 448.051 26.4533 447.958 26.36C447.864 26.2667 447.818 26.1533 447.818 26.02V13C447.818 12.8533 447.864 12.7333 447.958 12.64C448.051 12.5467 448.164 12.5 448.298 12.5H453.658C454.698 12.5 455.604 12.6667 456.378 13C457.151 13.32 457.751 13.8133 458.178 14.48C458.604 15.1333 458.818 15.9533 458.818 16.94C458.818 17.94 458.604 18.7667 458.178 19.42C457.751 20.06 457.151 20.54 456.378 20.86C455.604 21.18 454.698 21.34 453.658 21.34H450.678V26.02C450.678 26.1533 450.631 26.2667 450.538 26.36C450.458 26.4533 450.344 26.5 450.198 26.5H448.298ZM450.638 19.12H453.558C454.331 19.12 454.924 18.94 455.338 18.58C455.751 18.2067 455.958 17.66 455.958 16.94C455.958 16.2733 455.764 15.74 455.378 15.34C454.991 14.9267 454.384 14.72 453.558 14.72H450.638V19.12ZM461.481 26.5C461.348 26.5 461.235 26.4533 461.141 26.36C461.048 26.2667 461.001 26.1533 461.001 26.02V13C461.001 12.8533 461.048 12.7333 461.141 12.64C461.235 12.5467 461.348 12.5 461.481 12.5H466.661C468.275 12.5 469.548 12.8733 470.481 13.62C471.415 14.3667 471.881 15.4533 471.881 16.88C471.881 17.8667 471.635 18.6867 471.141 19.34C470.661 19.9933 470.015 20.4667 469.201 20.76L472.121 25.86C472.161 25.94 472.181 26.0133 472.181 26.08C472.181 26.2 472.135 26.3 472.041 26.38C471.961 26.46 471.868 26.5 471.761 26.5H469.941C469.715 26.5 469.541 26.44 469.421 26.32C469.301 26.2 469.208 26.08 469.141 25.96L466.561 21.22H463.781V26.02C463.781 26.1533 463.735 26.2667 463.641 26.36C463.561 26.4533 463.448 26.5 463.301 26.5H461.481ZM463.781 18.96H466.601C467.415 18.96 468.021 18.78 468.421 18.42C468.821 18.0467 469.021 17.5267 469.021 16.86C469.021 16.1933 468.821 15.6733 468.421 15.3C468.035 14.9133 467.428 14.72 466.601 14.72H463.781V18.96ZM474.938 26.5C474.805 26.5 474.692 26.4533 474.598 26.36C474.505 26.2667 474.458 26.1533 474.458 26.02V12.98C474.458 12.8467 474.505 12.7333 474.598 12.64C474.692 12.5467 474.805 12.5 474.938 12.5H476.818C476.965 12.5 477.078 12.5467 477.158 12.64C477.252 12.7333 477.298 12.8467 477.298 12.98V26.02C477.298 26.1533 477.252 26.2667 477.158 26.36C477.078 26.4533 476.965 26.5 476.818 26.5H474.938ZM485.295 26.7C484.055 26.7 483.015 26.52 482.175 26.16C481.348 25.7867 480.715 25.3067 480.275 24.72C479.848 24.12 479.622 23.4933 479.595 22.84C479.595 22.72 479.635 22.62 479.715 22.54C479.795 22.46 479.895 22.42 480.015 22.42H481.795C481.968 22.42 482.095 22.46 482.175 22.54C482.268 22.6067 482.348 22.6933 482.415 22.8C482.495 23.0533 482.648 23.3067 482.875 23.56C483.102 23.8 483.408 24 483.795 24.16C484.195 24.32 484.695 24.4 485.295 24.4C486.255 24.4 486.968 24.24 487.435 23.92C487.915 23.6 488.155 23.1667 488.155 22.62C488.155 22.2333 488.028 21.9267 487.775 21.7C487.522 21.46 487.128 21.2467 486.595 21.06C486.075 20.86 485.382 20.6533 484.515 20.44C483.515 20.2 482.675 19.9133 481.995 19.58C481.328 19.2333 480.822 18.8 480.475 18.28C480.142 17.76 479.975 17.1 479.975 16.3C479.975 15.5267 480.182 14.84 480.595 14.24C481.022 13.64 481.622 13.1667 482.395 12.82C483.182 12.4733 484.115 12.3 485.195 12.3C486.062 12.3 486.828 12.42 487.495 12.66C488.162 12.8867 488.715 13.1933 489.155 13.58C489.595 13.9533 489.928 14.36 490.155 14.8C490.395 15.2267 490.522 15.6467 490.535 16.06C490.535 16.1667 490.495 16.2667 490.415 16.36C490.348 16.44 490.248 16.48 490.115 16.48H488.255C488.148 16.48 488.042 16.4533 487.935 16.4C487.828 16.3467 487.742 16.2467 487.675 16.1C487.595 15.6867 487.335 15.3333 486.895 15.04C486.455 14.7467 485.888 14.6 485.195 14.6C484.475 14.6 483.895 14.7333 483.455 15C483.015 15.2667 482.795 15.68 482.795 16.24C482.795 16.6133 482.902 16.9267 483.115 17.18C483.342 17.42 483.695 17.6333 484.175 17.82C484.668 18.0067 485.315 18.2067 486.115 18.42C487.248 18.6733 488.175 18.9667 488.895 19.3C489.615 19.6333 490.142 20.06 490.475 20.58C490.808 21.0867 490.975 21.7333 490.975 22.52C490.975 23.4 490.735 24.1533 490.255 24.78C489.788 25.3933 489.128 25.8667 488.275 26.2C487.422 26.5333 486.428 26.7 485.295 26.7ZM493.747 26.5C493.614 26.5 493.5 26.4533 493.407 26.36C493.314 26.2667 493.267 26.1533 493.267 26.02V13C493.267 12.8533 493.314 12.7333 493.407 12.64C493.5 12.5467 493.614 12.5 493.747 12.5H502.547C502.694 12.5 502.814 12.5467 502.907 12.64C503 12.7333 503.047 12.8533 503.047 13V14.32C503.047 14.4533 503 14.5667 502.907 14.66C502.814 14.7533 502.694 14.8 502.547 14.8H495.967V18.34H502.107C502.254 18.34 502.374 18.3867 502.467 18.48C502.56 18.56 502.607 18.6733 502.607 18.82V20.06C502.607 20.2067 502.56 20.3267 502.467 20.42C502.374 20.5 502.254 20.54 502.107 20.54H495.967V24.2H502.707C502.854 24.2 502.974 24.2467 503.067 24.34C503.16 24.4333 503.207 24.5533 503.207 24.7V26.02C503.207 26.1533 503.16 26.2667 503.067 26.36C502.974 26.4533 502.854 26.5 502.707 26.5H493.747ZM510.568 26.7C509.328 26.7 508.288 26.52 507.448 26.16C506.622 25.7867 505.988 25.3067 505.548 24.72C505.122 24.12 504.895 23.4933 504.868 22.84C504.868 22.72 504.908 22.62 504.988 22.54C505.068 22.46 505.168 22.42 505.288 22.42H507.068C507.242 22.42 507.368 22.46 507.448 22.54C507.542 22.6067 507.622 22.6933 507.688 22.8C507.768 23.0533 507.922 23.3067 508.148 23.56C508.375 23.8 508.682 24 509.068 24.16C509.468 24.32 509.968 24.4 510.568 24.4C511.528 24.4 512.242 24.24 512.708 23.92C513.188 23.6 513.428 23.1667 513.428 22.62C513.428 22.2333 513.302 21.9267 513.048 21.7C512.795 21.46 512.402 21.2467 511.868 21.06C511.348 20.86 510.655 20.6533 509.788 20.44C508.788 20.2 507.948 19.9133 507.268 19.58C506.602 19.2333 506.095 18.8 505.748 18.28C505.415 17.76 505.248 17.1 505.248 16.3C505.248 15.5267 505.455 14.84 505.868 14.24C506.295 13.64 506.895 13.1667 507.668 12.82C508.455 12.4733 509.388 12.3 510.468 12.3C511.335 12.3 512.102 12.42 512.768 12.66C513.435 12.8867 513.988 13.1933 514.428 13.58C514.868 13.9533 515.202 14.36 515.428 14.8C515.668 15.2267 515.795 15.6467 515.808 16.06C515.808 16.1667 515.768 16.2667 515.688 16.36C515.622 16.44 515.522 16.48 515.388 16.48H513.528C513.422 16.48 513.315 16.4533 513.208 16.4C513.102 16.3467 513.015 16.2467 512.948 16.1C512.868 15.6867 512.608 15.3333 512.168 15.04C511.728 14.7467 511.162 14.6 510.468 14.6C509.748 14.6 509.168 14.7333 508.728 15C508.288 15.2667 508.068 15.68 508.068 16.24C508.068 16.6133 508.175 16.9267 508.388 17.18C508.615 17.42 508.968 17.6333 509.448 17.82C509.942 18.0067 510.588 18.2067 511.388 18.42C512.522 18.6733 513.448 18.9667 514.168 19.3C514.888 19.6333 515.415 20.06 515.748 20.58C516.082 21.0867 516.248 21.7333 516.248 22.52C516.248 23.4 516.008 24.1533 515.528 24.78C515.062 25.3933 514.402 25.8667 513.548 26.2C512.695 26.5333 511.702 26.7 510.568 26.7Z" fill="white"/>
<path d="M123.5 61V59.5H122V58H125V59.5H129.5V56.5H123.5V55H122V52H123.5V50.5H131V52H132.5V53.5H129.5V52H125V55H131V56.5H132.5V59.5H131V61H123.5ZM136.1 61V59.5H134.6V53.5H137.6V59.5H142.1V53.5H145.1V61H136.1ZM147.2 61V53.5H156.2V55H157.7V61H154.7V55H150.2V61H147.2ZM159.8 61V53.5H168.8V55H170.3V61H167.3V55H162.8V61H159.8ZM173.9 62.5V61H179.9V59.5H173.9V58H172.4V53.5H175.4V58H179.9V53.5H182.9V61H181.4V62.5H173.9ZM199.1 61V50.5H202.1V59.5H208.1V61H199.1ZM211.7 61V59.5H210.2V53.5H213.2V59.5H217.7V53.5H220.7V61H211.7Z" fill="#CE7BEC"/>
</svg>
