<svg width="72" height="72" viewBox="0 0 72 72" fill="none" xmlns="http://www.w3.org/2000/svg">
<path d="M51.9962 44.8293V45.0793H52.2462H61.8462C65.1066 45.0793 67.75 47.7077 67.75 50.9425V57.887C67.75 61.1218 65.1066 63.7502 61.8462 63.7502H10.1538C6.89343 63.7502 4.25 61.1218 4.25 57.887V50.9425C4.25 47.7077 6.89343 45.0793 10.1538 45.0793H49.7846H50.0346V44.8293V34.2169V34.0363L49.8632 33.9796C48.4865 33.5237 47.4746 32.1997 47.4746 30.6468C47.4746 28.7325 49.0842 27.1311 51.0154 27.1311C52.9487 27.1311 54.5562 28.6857 54.5562 30.6468C54.5562 32.1997 53.5442 33.5237 52.1676 33.9796L51.9962 34.0363V34.2169V44.8293ZM52.5946 30.6468C52.5946 29.7736 51.8904 29.0764 51.0154 29.0764C50.0851 29.0764 49.4361 29.7798 49.4361 30.6468C49.4361 31.5201 50.1404 32.2173 51.0154 32.2173C51.8903 32.2173 52.5946 31.5201 52.5946 30.6468ZM61.8462 61.8049C64.0011 61.8049 65.7885 60.0318 65.7885 57.887V50.9425C65.7885 48.7977 64.0011 47.0246 61.8462 47.0246H10.1538C7.99888 47.0246 6.21154 48.7977 6.21154 50.9425V57.887C6.21154 60.0318 7.99888 61.8049 10.1538 61.8049H61.8462Z" stroke="#F4F4F5" stroke-width="0.5"/>
<path d="M11.4883 55.3867V53.4414H29.4498V55.3867H11.4883Z" stroke="#F4F4F5" stroke-width="0.5"/>
<path d="M51.2656 55.3867V53.4414H58.0026V55.3867H51.2656Z" stroke="#F4F4F5" stroke-width="0.5"/>
<path d="M52.8773 23.4119C51.7979 22.5113 50.1812 22.5113 49.1018 23.4119L47.7303 22.0495C49.5986 20.3709 52.4283 20.3734 54.2509 22.0474L52.8773 23.4119Z" stroke="#F4F4F5" stroke-width="0.5"/>
<path d="M56.9212 19.3996C53.6215 16.3027 48.4091 16.3019 45.1084 19.3972L43.7396 18.0375C47.8262 14.1631 54.2466 14.1622 58.3342 18.035L56.9212 19.3996Z" stroke="#F4F4F5" stroke-width="0.5"/>
<path d="M40.9238 15.2393L39.5553 13.8798C45.9577 7.70698 56.1207 7.70698 62.5232 13.8798L61.1539 15.24C55.4929 9.84815 46.5392 9.84662 40.9238 15.2393Z" stroke="#F4F4F5" stroke-width="0.5"/>
</svg>
