<svg width="72" height="72" viewBox="0 0 72 72" fill="none" xmlns="http://www.w3.org/2000/svg">
<path d="M18.7168 2.25H27.4971C30.7845 2.25 33.9368 3.54394 36.2607 5.84643C38.5844 8.14885 39.8895 11.2711 39.8895 14.5262V17.8551H31.1092C27.8218 17.8551 24.6695 16.5612 22.3456 14.2587C20.0218 11.9563 18.7168 8.83402 18.7168 5.57892V2.25Z" stroke="white" stroke-width="0.5"/>
<path d="M48.2678 23.2236L39.4875 23.2236V19.8947C39.4875 16.6396 40.7925 13.5174 43.1163 11.2149C45.4401 8.91245 48.5925 7.61851 51.8799 7.61851L60.6602 7.61851V10.9474C60.6602 14.2025 59.3551 17.3248 57.0313 19.6272C54.7075 21.9297 51.5552 23.2236 48.2678 23.2236Z" stroke="white" stroke-width="0.5"/>
<path d="M67.3431 41.0404L67.3429 41.0401C66.91 40.1709 66.1623 39.4944 65.248 39.1459C64.3337 38.7973 63.3203 38.8026 62.4098 39.1607L62.4084 39.1613L51.4565 43.3915L51.3055 43.4499L51.1905 43.3359L43.7965 36.0099L43.9724 35.8323L43.7965 36.0099C43.0382 35.2584 42.0612 34.7606 41.0024 34.5866L40.793 34.5522V34.3399V16.3166C40.793 16.1463 40.7248 15.9826 40.6026 15.8615C40.4803 15.7404 40.3139 15.6719 40.14 15.6719C39.966 15.6719 39.7996 15.7404 39.6774 15.8615C39.5551 15.9826 39.4869 16.1463 39.4869 16.3166V34.3542V34.5665L39.2775 34.6009C38.2188 34.7749 37.2419 35.2726 36.4837 36.024C36.4836 36.0241 36.4835 36.0242 36.4834 36.0242L30.9246 41.5463L30.8515 41.6189H30.7485H20.3819C19.0034 41.6202 17.6664 42.0845 16.589 42.9355L67.3431 41.0404ZM67.3431 41.0404C67.7857 41.9267 67.8708 42.9466 67.5809 43.8925C67.291 44.8386 66.6477 45.6402 65.7815 46.1335L65.7811 46.1337L46.2253 57.314C45.3017 57.8406 44.2546 58.1181 43.1886 58.1187C43.1885 58.1187 43.1885 58.1187 43.1884 58.1187H26.0527H25.9497L25.8766 58.1912L14.416 69.5607C14.2931 69.6818 14.1264 69.7502 13.9521 69.7502C13.7782 69.7502 13.6118 69.6821 13.489 69.5615C13.3679 69.4394 13.3004 69.2756 13.3004 69.1054C13.3004 68.9351 13.368 68.7711 13.4892 68.649C13.4894 68.6488 13.4897 68.6486 13.4899 68.6483L25.2276 57.0186L67.3431 41.0404ZM44.5214 46.0925H44.4745H42.8382H42.5886L42.5882 45.8429C42.5864 44.7257 42.1384 43.6541 41.3413 42.8624C40.5443 42.0708 39.4629 41.6235 38.3334 41.6189C38.3332 41.6189 38.3331 41.6189 38.3329 41.6189L33.2769 41.6189H32.6694L33.101 41.1913L37.3957 36.936L37.3958 36.936C38.1202 36.2184 39.1021 35.8157 40.1255 35.8157C41.1487 35.8157 42.1305 36.2183 42.8549 36.9356L44.5214 46.0925ZM44.5214 46.0925L44.5652 46.0755L49.6221 44.1071L49.9817 43.9671L49.707 43.6962L42.8552 36.936L44.5214 46.0925ZM4.52811 52.4983L16.5887 42.9358L25.2281 57.0181C25.3509 56.8973 25.5174 56.8292 25.6915 56.8292H43.203H43.2033C44.0387 56.8283 44.8594 56.6111 45.5842 56.1988L45.5847 56.1986L65.1407 45.0181L65.1418 45.0174C65.7087 44.6895 66.1306 44.1617 66.3231 43.5387C66.5156 42.9156 66.4642 42.2435 66.1792 41.6564C65.8943 41.0693 65.3971 40.6107 64.7871 40.3712C64.1772 40.1317 63.4987 40.1285 62.8865 40.3623L62.8854 40.3628L44.8952 47.3373C44.895 47.3374 44.8947 47.3375 44.8945 47.3376C44.8178 47.3665 44.7365 47.3816 44.6545 47.382C44.6543 47.382 44.6542 47.382 44.654 47.382L42.4697 47.382H42.3067L42.241 47.5312C41.9094 48.2838 41.3634 48.9247 40.6695 49.3751C39.9755 49.8255 39.1638 50.0657 38.3338 50.0661H23.8854C23.7115 50.0661 23.5451 49.9977 23.4228 49.8765C23.3006 49.7554 23.2324 49.5917 23.2324 49.4214C23.2324 49.2512 23.3006 49.0874 23.4228 48.9663C23.5451 48.8452 23.7115 48.7767 23.8854 48.7767H38.3339C39.118 48.7767 39.8703 48.4681 40.4254 47.9181C40.9806 47.368 41.293 46.6215 41.293 45.8425C41.293 45.0636 40.9806 44.317 40.4254 43.7669C39.8703 43.2169 39.118 42.9083 38.3339 42.9083H20.3817H20.3815C19.3002 42.9092 18.2509 43.2738 17.4055 43.9429L17.4053 43.943L5.34452 53.5023L5.34435 53.5021L5.33546 53.5098C5.26923 53.5676 5.19169 53.6116 5.10752 53.639C5.02336 53.6664 4.93436 53.6766 4.84602 53.6689C4.75768 53.6613 4.6719 53.636 4.59392 53.5946L4.47676 53.8155L4.59391 53.5946C4.51599 53.5533 4.4475 53.4968 4.39243 53.4285C4.33734 53.3603 4.29692 53.2819 4.27351 53.1982C4.25009 53.1145 4.2441 53.0269 4.25585 52.9407C4.26759 52.8545 4.29685 52.7715 4.34196 52.6968C4.38709 52.622 4.44718 52.5568 4.51869 52.5054L4.51885 52.5057L4.52811 52.4983Z" stroke="white" stroke-width="0.5"/>
</svg>
